. 
 
http://www.torrenting.com          :     Once & For all ;)


               www . Torrenting . Com 

(((((((((((((= Enjoy No RAR releases =))))))))))))))))))))


...................................NFO:....................................

.Stir.Of.Echoes.1999.BRRip.XviD.AC3-SiC

Poster:
[IMG]http://i.imgur.com/S0Vf3.jpg[/IMG]

IMDB Link: 
http://www.imdb.com/title/tt0164181/

Description:
After being hypnotized by his sister in law, a man begins seeing haunting visions of a girl's ghost and a mystery begins to unfold around her. 

General:
Complete name                    : Stir.Of.Echoes.1999.BRRip.XviD.AC3-SiC.avi
Format                           : AVI
Format/Info                      : Audio Video Interleave
File size                        : 832 MiB
Duration                         : 1h 39mn
Overall bit rate                 : 1 173 Kbps
Writing application              : VirtualDubMod 1.5.10.2 (build 2540/release)
Writing library                  : VirtualDubMod build 2540/release

Video
ID                               : 0
Format                           : MPEG-4 Visual
Format profile                   : Advanced Simple@L5
Format settings, BVOP            : 2
Format settings, QPel            : No
Format settings, GMC             : No warppoints
Format settings, Matrix          : Default (H.263)
Muxing mode                      : Packed bitstream
Codec ID                         : XVID
Codec ID/Hint                    : XviD
Duration                         : 1h 39mn
Bit rate                         : 779 Kbps
Width                            : 1 280 pixels
Height                           : 720 pixels
Display aspect ratio             : 16:9
Frame rate                       : 23.976 fps
Color space                      : YUV
Chroma subsampling               : 4:2:0
Bit depth                        : 8 bits
Scan type                        : Progressive
Compression mode                 : Lossy
Bits/(Pixel*Frame)               : 0.035
Stream size                      : 553 MiB (66%)
Writing library                  : XviD 64

Audio
ID                               : 1
Format                           : AC-3
Format/Info                      : Audio Coding 3
Mode extension                   : CM (complete main)
Codec ID                         : 2000
Duration                         : 1h 39mn
Bit rate mode                    : Constant
Bit rate                         : 384 Kbps
Channel(s)                       : 6 channels
Channel positions                : Front: L C R, Side: L R, LFE
Sampling rate                    : 48.0 KHz
Bit depth                        : 16 bits
Compression mode                 : Lossy
Stream size                      : 272 MiB (33%)
Alignment                        : Split accross interleaves
Interleave, duration             : 42 ms (1.00 video frame)
Interleave, preload duration     : 500 ms

Screenshots:
[IMG]http://i.imgur.com/KqMYg.jpg[/IMG]
[IMG]http://i.imgur.com/zJ7U6.jpg[/IMG]
[IMG]http://i.imgur.com/5EyNw.jpg[/IMG]
[IMG]http://i.imgur.com/ookIv.jpg[/IMG]

Source:  Stir.Of.Echoes.1999.1080p.MPEG2.DTS.6.1.REMUX

Enjoy!

Respects to T00NG0D, ELEKTRI4KA, PA, YeFsTe, MrRep and everyone in the struggle...